<svg width="50" height="50" viewBox="0 0 50 50" fill="none" xmlns="http://www.w3.org/2000/svg">
<g clip-path="url(#clip0_26_207)">
<path d="M49.9996 47.7974C49.9992 46.0327 48.9498 44.4458 47.3259 43.755L34.8701 38.4556V35.35C36.1889 33.6945 37.0228 31.7226 37.302 29.6055H39.8483C42.2714 29.6055 44.2429 27.634 44.2429 25.211V18.911C44.2429 16.6954 42.5941 14.8586 40.4594 14.5599C40.1428 5.02892 34.8141 0 25 0C15.1859 0 9.85718 5.02892 9.54056 14.5599C7.40585 14.8586 5.75714 16.6954 5.75714 18.911V25.211C5.75714 27.634 7.72858 29.6055 10.1517 29.6055H12.698C12.9772 31.723 13.8111 33.6948 15.1299 35.35V38.4556L2.67448 43.755C1.05019 44.4458 0.000762939 46.0327 0 47.7978V48.5344C0 48.9231 0.154114 49.2958 0.429153 49.5705C0.703812 49.8451 1.07651 49.9996 1.46484 49.9996H48.5352C48.9239 49.9996 49.2966 49.8451 49.5712 49.5705C49.8459 49.2954 50 48.9227 50 48.5344L49.9996 47.7974ZM31.942 39.4833C31.9431 39.5184 32.0251 43.0737 29.9252 45.2606C28.772 46.4611 27.1149 47.0695 25 47.0695C22.8928 47.0695 21.2399 46.4653 20.0874 45.2736C17.9623 43.0752 18.0573 39.5142 18.058 39.4833C18.0592 39.4634 18.0595 39.444 18.0595 39.4241V37.9738C20.0653 39.2429 22.4579 39.9246 25 39.9246C27.5421 39.9246 29.9347 39.2429 31.9405 37.9738V39.4241C31.9405 39.444 31.9408 39.4634 31.942 39.4833ZM34.4772 27.3567L31.6906 29.2149C30.8056 29.805 29.7752 30.117 28.7109 30.117H26.2333C25.4246 30.117 24.7684 30.7728 24.7684 31.5819C24.7684 32.391 25.4246 33.0467 26.2333 33.0467H28.7109C30.3555 33.0467 31.9481 32.5645 33.316 31.6521L33.8768 31.2782C32.555 34.6889 29.1744 36.9949 25 36.9949C19.5972 36.9949 15.5228 33.1326 15.5228 28.0106V16.135C16.1003 13.4502 16.9369 11.7439 17.9455 11.1969C18.9499 10.6514 20.4094 11.2186 21.8208 11.7668C22.9206 12.1937 23.9594 12.5973 25 12.5973C26.0502 12.5973 27.0763 12.1895 28.1631 11.758C29.5761 11.1965 30.9109 10.6663 31.8996 11.182C32.6202 11.5578 33.6475 12.7277 34.4772 16.1537V27.3567ZM41.3132 18.911V25.211C41.3132 26.0185 40.6559 26.6758 39.8483 26.6758H37.4069V17.4461H39.8483C40.6559 17.4461 41.3132 18.1034 41.3132 18.911ZM15.0818 6.51817C17.1104 4.13704 20.4472 2.92969 25 2.92969C29.5528 2.92969 32.8896 4.13704 34.9182 6.51817C36.5154 8.3931 37.3905 11.0813 37.5259 14.5164H37.0766C36.1919 11.3747 34.9644 9.47609 33.2542 8.58421C31.0757 7.4482 28.8609 8.32787 27.0813 9.03511C26.2985 9.34601 25.489 9.66759 24.9996 9.66759C24.5079 9.66759 23.6809 9.34639 22.8813 9.03587C21.0388 8.31985 18.7454 7.42912 16.5478 8.6216C14.8907 9.5211 13.6909 11.4555 12.8963 14.5164H12.4741C12.6091 11.0813 13.4846 8.3931 15.0818 6.51817ZM8.68683 25.211V18.911C8.68683 18.1034 9.3441 17.4461 10.1517 17.4461H12.5931V26.6758H10.1517C9.3441 26.6758 8.68683 26.0185 8.68683 25.211ZM3.82118 46.4508L15.2977 41.568C15.5548 43.1576 16.1934 45.3205 17.7589 47.0699H3.12347C3.27873 46.7987 3.52058 46.5786 3.82118 46.4508ZM32.2411 47.0699C33.8066 45.3205 34.4452 43.1576 34.7023 41.568L46.1788 46.4508C46.4794 46.5786 46.7209 46.7987 46.8765 47.0699H32.2411Z" fill="white"/>
</g>
<defs>
<clipPath id="clip0_26_207">
<rect width="50" height="50" fill="white"/>
</clipPath>
</defs>
</svg>
