<svg width="50" height="50" viewBox="0 0 50 50" fill="none" xmlns="http://www.w3.org/2000/svg">
<path d="M49.5555 10.6051C49.2777 10.4098 48.9217 10.362 48.6023 10.48L40.1104 13.5684C39.0575 13.9509 38.2192 14.722 37.7503 15.7392C37.6624 15.9299 37.6047 16.1281 37.5469 16.3259C36.0887 15.9114 33.3787 15.0455 30.6855 13.6579C26.6159 11.561 23.5068 12.5967 20.8402 14.6307C19.4891 14.6573 17.6268 14.817 15.7961 14.9784C14.6283 15.0814 13.5247 15.1762 12.6298 15.2308C12.6078 14.6933 12.482 14.1599 12.25 13.656C11.7811 12.6387 10.9429 11.8676 9.88994 11.4852L1.39775 8.39662C1.07939 8.27963 0.721289 8.32748 0.444629 8.52172C0.16582 8.71713 0 9.03549 0 9.37523V30.2085C0 30.7843 0.465918 31.2502 1.0417 31.2502H4.08428C5.37832 31.2502 6.58223 30.6399 7.36045 29.6543C7.775 29.9696 8.26602 30.3387 8.78096 30.7253C9.99658 31.6399 11.3271 32.6377 11.911 33.1271C15.7898 36.3742 20.4529 39.8806 21.3816 40.491C22.2493 41.0606 23.8118 41.6669 25 41.6669C25.4648 41.6669 26.6357 41.6669 27.4577 40.9721C28.3051 41.3047 29.2186 41.2885 30.068 40.9141C30.9153 40.5408 31.601 39.8369 31.9997 38.9813C32.8135 39.1481 33.7483 39.026 34.5957 38.6008C35.3901 38.2031 35.9751 37.6008 36.2884 36.8969C37.0411 36.9661 37.8448 36.7209 38.564 36.1705C39.5915 35.3851 40.062 34.2251 39.9289 33.0808L42.5712 31.619C43.345 32.6679 44.5749 33.3334 45.9156 33.3334H48.9582C49.534 33.3334 49.9999 32.8675 49.9999 32.2917V11.4586C50 11.1188 49.8342 10.8004 49.5555 10.6051ZM6.03535 27.815C5.73223 28.6237 4.94795 29.1669 4.08428 29.1669H2.0833V10.8624L9.17764 13.4422C9.70459 13.6345 10.1237 14.0201 10.3576 14.5287C10.5926 15.0372 10.613 15.607 10.4166 16.1308L6.03535 27.815ZM37.2996 34.5157C36.9466 34.7863 36.4522 34.9369 36.2325 34.7171C36.2213 34.7059 36.2039 34.707 36.1924 34.6962C36.1725 34.6778 36.1626 34.6529 36.141 34.6357C35.3964 34.0477 32.0598 30.6338 29.9979 28.4833C29.6001 28.0673 28.9399 28.052 28.5259 28.4518C28.1099 28.8495 28.0956 29.5087 28.4943 29.9238C28.9783 30.4289 32.8635 34.4753 34.4185 35.8905C34.3023 36.3479 33.8783 36.6303 33.663 36.7383C32.9957 37.073 32.2999 37.017 32.0395 36.7749C32.0317 36.7677 32.0202 36.7681 32.0122 36.7611C31.9995 36.7497 31.9938 36.7338 31.9804 36.7231C30.7312 35.7251 27.5971 32.3947 26.888 31.6236C26.4983 31.1994 25.8402 31.1729 25.416 31.5616C24.9929 31.9512 24.9644 32.6104 25.354 33.0335C25.3882 33.0705 28.4597 36.3837 30.1848 37.9227C30.0152 38.4098 29.6698 38.8132 29.2267 39.0088C28.8996 39.1541 28.3881 39.2287 27.8036 38.7967C26.3077 37.5284 23.3057 34.3328 22.7152 33.7008C22.3236 33.2796 21.6624 33.2583 21.2433 33.651C20.8231 34.0437 20.8008 34.7029 21.1935 35.123C21.8935 35.8722 23.9625 38.0652 25.5354 39.55C25.3597 39.5714 25.1752 39.5836 25 39.5836C24.3103 39.5836 23.1252 39.1432 22.5261 38.7495C21.7957 38.2693 17.2099 34.8473 13.2497 31.531C12.6506 31.0285 11.2834 30 10.0321 29.0601C9.36152 28.5567 8.74365 28.0925 8.28828 27.7422L12.1885 17.3403C13.2009 17.296 14.5506 17.1793 15.979 17.0534C16.7869 16.9822 17.5957 16.9127 18.3686 16.8526C17.1807 18.072 15.4146 20.2561 15.6474 22.3034C15.7542 23.2352 16.2639 24.0114 17.1234 24.5485C18.8253 25.6135 21.9758 24.7204 23.4935 22.8537C24.473 22.7123 25.1354 22.4621 25.8575 22.104C27.0782 23.2515 28.7149 24.6004 30.4342 26.0174C33.427 28.4832 36.8194 31.2786 37.7167 32.8462C38.2161 33.7181 37.5234 34.3448 37.2996 34.5157ZM39.0866 31.1657C37.6987 29.309 34.6901 26.8249 31.7586 24.4092C29.8045 22.7989 27.9592 21.2781 26.7781 20.0971C26.4526 19.7736 25.9531 19.7003 25.5503 19.915C24.4893 20.4836 24.0112 20.7186 22.8129 20.8386C22.4935 20.8711 22.2066 21.0482 22.0357 21.3198C21.2188 22.6158 18.9483 23.2322 18.2281 22.7826C17.8191 22.5262 17.7398 22.2658 17.7175 22.0674C17.6168 21.1814 18.514 19.6474 20.0022 18.1581C23.6878 14.4726 26.3225 13.7514 29.7312 15.5092C32.9699 17.179 36.1663 18.1232 37.5081 18.4798C37.5469 18.6359 37.575 18.7935 37.6322 18.9465L41.6769 29.7328L39.0866 31.1657ZM47.9167 31.2502H45.9157C45.0521 31.2502 44.2678 30.707 43.9646 29.8983L39.5833 18.2152C39.387 17.6903 39.4073 17.1206 39.6423 16.612C39.8763 16.1034 40.2954 15.7178 40.8223 15.5255L47.9166 12.9457V31.2502H47.9167Z" fill="#39B54A"/>
</svg>
