<svg width="50" height="50" viewBox="0 0 50 50" fill="none" xmlns="http://www.w3.org/2000/svg">
<g clip-path="url(#clip0_22_188)">
<path d="M45.5324 26.856C44.3661 26.856 43.3033 27.3062 42.5073 28.0413L35.2464 24.5974C35.8982 21.9916 35.2764 18.9945 33.7409 16.9098L41.0723 10.6318C44.8366 13.1382 50.0239 10.3518 49.9961 5.79877C49.9961 2.61577 47.4065 0.026118 44.2234 0.026118C39.939 -0.0152883 37.0894 4.70161 39.1036 8.4604L31.6879 14.8106C28.2696 12.1358 22.9331 12.3661 19.7587 15.2917L9.54131 6.65327C10.7734 3.51606 8.31025 -0.0500539 4.9292 0.000532042C2.21338 0.000532042 0.00380511 2.2101 0.00380511 4.92592C-0.0185582 8.87924 4.54033 11.2386 7.74023 8.96694L17.8827 17.5422C16.5919 19.6234 16.1768 22.4884 16.871 24.9075L10.2149 28.7217C9.14248 27.518 7.58213 26.7581 5.84697 26.7581C-1.91465 27.0791 -1.91338 38.1396 5.84697 38.46C9.53779 38.5068 12.4052 34.9148 11.5555 31.3301L18.0813 27.5904C19.3092 29.4646 21.1819 30.8797 23.3821 31.5176L23.0219 40.0656C20.82 40.6113 19.1827 42.6033 19.1827 44.9714C19.4604 51.6772 29.0153 51.6749 29.292 44.9714C29.292 42.7845 27.8956 40.9181 25.9478 40.2155L26.2989 31.8866C29.6179 31.7899 32.5145 29.9797 34.1329 27.3117L41.1227 30.6269C40.6811 33.2967 42.8226 35.8079 45.5323 35.7833C51.4539 35.5384 51.4527 27.1004 45.5324 26.856ZM5.84716 35.5304C4.23632 35.5304 2.92588 34.22 2.92588 32.6091C3.08632 28.7336 8.60859 28.7347 8.76845 32.6091C8.76845 34.22 7.45791 35.5304 5.84716 35.5304ZM44.2235 2.9559C45.7912 2.9559 47.0665 4.23129 47.0665 5.79887C46.9103 9.57036 41.5362 9.56928 41.3806 5.79887C41.3806 4.2312 42.656 2.9559 44.2235 2.9559ZM2.93349 4.92602C2.93349 3.82553 3.82881 2.93022 4.92929 2.93022C6.5166 2.91489 7.48222 4.75776 6.57822 6.04838C6.57519 6.0519 6.57187 6.05483 6.56884 6.05834C6.53066 6.10356 6.49668 6.15073 6.46484 6.19897C5.28545 7.6229 2.9416 6.79702 2.93349 4.92602ZM24.2375 47.0965C23.0658 47.0965 22.1126 46.1433 22.1126 44.9716C22.2293 42.1527 26.2462 42.1536 26.3625 44.9716C26.3624 46.1433 25.4092 47.0965 24.2375 47.0965ZM26.0191 28.9615C22.4057 28.9615 19.4659 26.0216 19.4659 22.4082C19.8259 13.7146 32.2138 13.717 32.5724 22.4083C32.5723 26.0216 29.6326 28.9615 26.0191 28.9615ZM45.5324 32.8538C44.3992 32.8749 43.6293 31.5911 44.1761 30.6052C44.1856 30.589 44.1949 30.5727 44.204 30.556C44.9868 29.212 47.0492 29.7443 47.0665 31.3198C47.0665 32.1656 46.3783 32.8538 45.5324 32.8538Z" fill="white"/>
</g>
<defs>
<clipPath id="clip0_22_188">
<rect width="50" height="50" fill="white"/>
</clipPath>
</defs>
</svg>
