<svg width="50" height="50" viewBox="0 0 50 50" fill="none" xmlns="http://www.w3.org/2000/svg">
<path d="M25.9766 39.6484C25.9766 40.1878 25.5394 40.625 25 40.625C24.4606 40.625 24.0234 40.1878 24.0234 39.6484C24.0234 39.109 24.4606 38.6719 25 38.6719C25.5394 38.6719 25.9766 39.109 25.9766 39.6484Z" fill="#39B54A"/>
<path d="M46.7773 30.8594C46.7773 27.6283 44.149 25 40.918 25C37.6869 25 35.0586 27.6283 35.0586 30.8594C35.0586 34.0904 37.6869 36.7188 40.918 36.7188C44.149 36.7188 46.7773 34.0904 46.7773 30.8594ZM40.918 34.7656C38.7642 34.7656 37.0117 33.0132 37.0117 30.8594C37.0117 28.7056 38.7642 26.9531 40.918 26.9531C43.0717 26.9531 44.8242 28.7056 44.8242 30.8594C44.8242 33.0132 43.0717 34.7656 40.918 34.7656Z" fill="#39B54A"/>
<path d="M40.918 36.7188C38.4571 36.7188 36.0031 37.7403 34.3315 39.3967C32.1312 36.5051 28.7384 34.7656 25 34.7656C21.4199 34.7656 17.9508 36.3991 15.6689 39.3967C13.9969 37.7407 11.5433 36.7188 9.08203 36.7188C4.15916 36.7188 0 40.7436 0 45.5078V47.4609C0 48.0003 0.437164 48.4375 0.976562 48.4375H49.0234C49.5628 48.4375 50 48.0003 50 47.4609V45.5078C50 40.7436 45.8408 36.7188 40.918 36.7188ZM1.95312 45.5078C1.95312 41.8022 5.21774 38.6719 9.08203 38.6719C11.1965 38.6719 13.2935 39.6088 14.5916 41.098C13.7333 42.7559 13.2812 44.6037 13.2812 46.4844H1.95312V45.5078ZM25 36.7188C30.434 36.7188 34.7656 41.1278 34.7656 46.4844H15.2344C15.2344 41.0564 19.6545 36.7188 25 36.7188ZM48.0469 46.4844H36.7188C36.7188 44.6037 36.2667 42.7559 35.4084 41.098C36.7065 39.6088 38.8035 38.6719 40.918 38.6719C44.7823 38.6719 48.0469 41.8022 48.0469 45.5078V46.4844Z" fill="#39B54A"/>
<path d="M14.9414 30.8594C14.9414 27.6283 12.3131 25 9.08203 25C5.85098 25 3.22266 27.6283 3.22266 30.8594C3.22266 34.0904 5.85098 36.7188 9.08203 36.7188C12.3131 36.7188 14.9414 34.0904 14.9414 30.8594ZM9.08203 34.7656C6.92825 34.7656 5.17578 33.0132 5.17578 30.8594C5.17578 28.7056 6.92825 26.9531 9.08203 26.9531C11.2358 26.9531 12.9883 28.7056 12.9883 30.8594C12.9883 33.0132 11.2358 34.7656 9.08203 34.7656Z" fill="#39B54A"/>
<path d="M32.8125 26.9531C32.8125 22.6452 29.3079 19.1406 25 19.1406C20.6921 19.1406 17.1875 22.6452 17.1875 26.9531C17.1875 31.2611 20.6921 34.7656 25 34.7656C29.3079 34.7656 32.8125 31.2611 32.8125 26.9531ZM25 32.8125C21.769 32.8125 19.1406 30.1842 19.1406 26.9531C19.1406 23.7221 21.769 21.0938 25 21.0938C28.231 21.0938 30.8594 23.7221 30.8594 26.9531C30.8594 30.1842 28.231 32.8125 25 32.8125Z" fill="#39B54A"/>
<path d="M32.7294 7.2422C32.6146 6.88858 32.3091 6.63109 31.9409 6.57768L27.7288 5.96619L25.8428 2.11029C25.6791 1.77498 25.3388 1.5625 24.9658 1.5625C24.5927 1.5625 24.2524 1.77498 24.0884 2.10991L22.2028 5.96619L17.9906 6.5773C17.6225 6.63071 17.3169 6.88858 17.2021 7.2422C17.0873 7.59583 17.183 7.98378 17.4493 8.24318L20.4995 11.216L19.7797 15.414C19.7167 15.7803 19.8674 16.1507 20.1684 16.3689C20.4675 16.5863 20.8657 16.6172 21.1969 16.4433L24.9658 14.4615L28.7362 16.4433C29.065 16.6164 29.4637 16.5874 29.7647 16.3689C30.0653 16.1503 30.2159 15.7803 30.153 15.4137L29.4324 11.216L32.4823 8.24318C32.7485 7.98378 32.8443 7.59583 32.7294 7.2422ZM27.7009 10.1757C27.4709 10.4 27.3656 10.7235 27.4201 11.0401L27.8928 13.7939L25.4201 12.4939C25.1355 12.3444 24.7956 12.3444 24.5111 12.4939L22.0391 13.7939L22.5114 11.0401C22.5656 10.7231 22.4603 10.4 22.2303 10.1757L20.2298 8.22601L22.9936 7.82471C23.3132 7.77855 23.589 7.57713 23.7306 7.28722L24.9658 4.76189L26.2006 7.28722C26.3425 7.57751 26.6183 7.77855 26.9376 7.82471L29.7017 8.22601L27.7009 10.1757Z" fill="#39B54A"/>
<path d="M47.3242 14.5615C47.2094 14.2078 46.9038 13.9503 46.5357 13.8969L43.6819 13.4823L42.4059 10.8959C42.2415 10.5625 41.9024 10.3516 41.5304 10.3516C41.5304 10.3516 41.5304 10.3516 41.5301 10.3516C41.1585 10.3516 40.819 10.5625 40.6546 10.8959L39.3778 13.4823L36.5237 13.8969C36.1559 13.9503 35.8504 14.2078 35.7355 14.5615C35.6203 14.9151 35.7161 15.303 35.9824 15.5624L38.0472 17.5762L37.5597 20.4182C37.4972 20.7844 37.6475 21.1544 37.9484 21.373C38.249 21.5916 38.6477 21.6206 38.9765 21.4478L41.5301 20.1061L44.0829 21.4478C44.4117 21.6206 44.8107 21.5916 45.1113 21.373C45.4119 21.1548 45.5622 20.7844 45.4996 20.4182L45.0121 17.5762L47.0774 15.5624C47.3437 15.303 47.439 14.9151 47.3242 14.5615ZM43.2814 16.5363C43.051 16.7606 42.9461 17.0837 43.0006 17.4004L43.2402 18.7981L41.9848 18.1385C41.7002 17.989 41.3603 17.989 41.0761 18.1385L39.8196 18.7984L40.0595 17.4004C40.1137 17.0837 40.0088 16.7606 39.7787 16.5363L38.7625 15.5453L40.1667 15.3416C40.4848 15.2954 40.7599 15.0955 40.9022 14.8075L41.5301 13.5353L42.1576 14.8071C42.2999 15.0955 42.5749 15.2954 42.8931 15.3416L44.2972 15.5453L43.2814 16.5363Z" fill="#39B54A"/>
<path d="M14.1211 14.5615C14.0063 14.2078 13.7007 13.9503 13.3326 13.8969L10.4788 13.4823L9.2028 10.8959C9.03838 10.5625 8.69926 10.3516 8.32732 10.3516C7.95539 10.3516 7.61588 10.5625 7.45147 10.8959L6.17469 13.4823L3.32053 13.8969C2.9528 13.9503 2.64724 14.2078 2.53242 14.5615C2.41721 14.9151 2.51296 15.303 2.77923 15.5624L4.84412 17.5762L4.35699 20.4182C4.29405 20.7844 4.44473 21.1544 4.74532 21.373C5.04592 21.5916 5.44456 21.6206 5.77377 21.4478L8.32694 20.1061L10.8797 21.4478C11.2109 21.6217 11.6091 21.5904 11.9082 21.373C12.2088 21.1548 12.3595 20.7844 12.2965 20.4182L11.809 17.5762L13.8743 15.5624C14.1405 15.303 14.2359 14.9151 14.1211 14.5615ZM10.0779 16.5363C9.84786 16.7606 9.74296 17.0837 9.79713 17.4004L10.0371 18.7981L8.78127 18.1385C8.49708 17.989 8.15719 17.989 7.87299 18.1385L6.61605 18.7984L6.856 17.4004C6.91055 17.0837 6.80526 16.7606 6.57523 16.5363L5.559 15.5453L6.96357 15.3416C7.28133 15.2954 7.55637 15.0955 7.69866 14.8075L8.32656 13.5353L8.95408 14.8071C9.09637 15.0955 9.37141 15.2954 9.68955 15.3416L11.0937 15.5453L10.0779 16.5363Z" fill="#39B54A"/>
<path d="M29.2786 39.9507C28.8277 39.6543 28.2223 39.7798 27.9263 40.2307C27.6299 40.6812 27.7554 41.2866 28.2063 41.583C29.1092 42.1762 29.8309 43.0032 30.2933 43.9744C30.5244 44.4608 31.1066 44.6687 31.5945 44.4364C32.0816 44.2048 32.2884 43.6219 32.0568 43.1352C31.4411 41.8412 30.4802 40.7399 29.2786 39.9507Z" fill="#39B54A"/>
</svg>
