<svg width="18" height="18" viewBox="0 0 18 18" fill="none" xmlns="http://www.w3.org/2000/svg">
<path d="M4.68007 13.3199C7.19526 15.8351 10.037 17.5249 12.4767 17.9559C12.6402 17.985 12.8058 17.9998 12.9719 18C13.6741 18 14.3258 17.7279 14.8437 17.21L16.5738 15.4799C16.8117 15.2415 16.9453 14.9184 16.9453 14.5815C16.9453 14.2447 16.8117 13.9216 16.5738 13.6832L13.4657 10.5751C13.2273 10.3372 12.9042 10.2035 12.5673 10.2035C12.2305 10.2035 11.9074 10.3372 11.6689 10.5751L10.0992 12.1449C8.61312 11.0681 6.93191 9.38688 5.85514 7.90083L7.4249 6.33107C7.66285 6.09264 7.79649 5.76954 7.79649 5.43269C7.79649 5.09584 7.66285 4.77274 7.4249 4.53431L4.31684 1.42626C4.07841 1.18831 3.75533 1.05468 3.41848 1.05468C3.08164 1.05468 2.75855 1.18831 2.52012 1.42626L0.790051 3.15629C0.15205 3.79425 -0.112846 4.63489 0.0441233 5.5233C0.475023 7.96298 2.16487 10.8047 4.68007 13.3199ZM1.58551 3.95175L3.31558 2.22182C3.34304 2.19486 3.37998 2.17976 3.41846 2.17976C3.45694 2.17976 3.49389 2.19486 3.52135 2.22182L6.6294 5.32988C6.65619 5.35744 6.67118 5.39436 6.67118 5.4328C6.67118 5.47123 6.65619 5.50815 6.6294 5.53571L4.9771 7.18802C4.81161 7.35275 4.71004 7.57093 4.69054 7.80361C4.67103 8.0363 4.73485 8.26834 4.87061 8.45832C6.04997 10.1166 7.88343 11.9501 9.54168 13.1294C9.73165 13.2652 9.96371 13.329 10.1964 13.3095C10.4291 13.29 10.6473 13.1885 10.8121 13.0229L12.4644 11.3706C12.4918 11.3437 12.5288 11.3286 12.5673 11.3286C12.6058 11.3286 12.6428 11.3437 12.6702 11.3706L15.7783 14.4787C15.8052 14.5062 15.8203 14.5431 15.8203 14.5816C15.8203 14.6201 15.8052 14.6571 15.7783 14.6845L14.0482 16.4146C13.672 16.7907 13.1961 16.9406 12.6724 16.8482C10.4873 16.462 7.79681 14.8457 5.47553 12.5245C3.15425 10.2032 1.53798 7.51271 1.15194 5.32759C1.05938 4.80374 1.20931 4.32795 1.58551 3.95175ZM18 7.45365C18 7.60283 17.9407 7.7459 17.8353 7.85139C17.7298 7.95688 17.5867 8.01614 17.4375 8.01614C17.2883 8.01614 17.1453 7.95688 17.0398 7.85139C16.9343 7.7459 16.875 7.60283 16.875 7.45365C16.875 3.96399 14.036 1.12497 10.5463 1.12497C10.3972 1.12497 10.2541 1.06571 10.1486 0.960225C10.0431 0.854738 9.98386 0.711668 9.98386 0.562487C9.98386 0.413306 10.0431 0.270235 10.1486 0.164749C10.2541 0.0592618 10.3972 0 10.5463 0C14.6563 0 18 3.3437 18 7.45365ZM10.5463 4.35143C10.3972 4.35143 10.2541 4.29217 10.1486 4.18668C10.0431 4.0812 9.98386 3.93813 9.98386 3.78895C9.98386 3.63977 10.0431 3.49669 10.1486 3.39121C10.2541 3.28572 10.3972 3.22646 10.5463 3.22646C11.6671 3.22772 12.7415 3.67349 13.534 4.46597C14.3265 5.25845 14.7723 6.33292 14.7735 7.45365C14.7735 7.60283 14.7143 7.7459 14.6088 7.85139C14.5033 7.95688 14.3602 8.01614 14.2111 8.01614C14.0619 8.01614 13.9188 7.95688 13.8133 7.85139C13.7078 7.7459 13.6486 7.60283 13.6486 7.45365C13.6476 6.63118 13.3205 5.84265 12.7389 5.26107C12.1574 4.67949 11.3688 4.35235 10.5463 4.35143ZM9.35704 6.44617C9.35704 6.29699 9.4163 6.15392 9.52179 6.04843C9.62728 5.94294 9.77035 5.88368 9.91953 5.88368C10.5237 5.88436 11.1029 6.12467 11.5301 6.55188C11.9573 6.97909 12.1977 7.55832 12.1983 8.16249C12.1983 8.31167 12.1391 8.45474 12.0336 8.56023C11.9281 8.66572 11.785 8.72498 11.6358 8.72498C11.4867 8.72498 11.3436 8.66572 11.2381 8.56023C11.1326 8.45474 11.0734 8.31167 11.0734 8.16249C11.073 7.85658 10.9513 7.5633 10.735 7.34699C10.5187 7.13068 10.2254 7.009 9.91953 7.00866C9.77035 7.00866 9.62728 6.94939 9.52179 6.84391C9.4163 6.73842 9.35704 6.59535 9.35704 6.44617Z" fill="black"/>
</svg>
