<svg width="30" height="30" viewBox="0 0 30 30" fill="none" xmlns="http://www.w3.org/2000/svg">
<g clip-path="url(#clip0_77_23)">
<path d="M15.0025 30.005C23.2881 30.005 30.005 23.2881 30.005 15.0025C30.005 6.71684 23.2881 0 15.0025 0C6.71684 0 0 6.71684 0 15.0025C0 23.2881 6.71684 30.005 15.0025 30.005Z" fill="#4085FE"/>
<path fill-rule="evenodd" clip-rule="evenodd" d="M16.6762 19.4155H20.064L20.7426 15.1411H16.6762V11.9068C16.6762 10.7082 17.8253 10.0296 18.9199 10.0296H20.9011V6.48829L17.3548 6.32979C13.967 6.12177 12.0898 8.7815 12.0898 11.9613V15.1411H8.23145V19.4155H12.0898V29.7176C13.0309 29.9009 14.0066 29.9999 15.0021 29.9999C15.5668 29.9999 16.1264 29.9653 16.6812 29.9058V19.4155H16.6762Z" fill="white"/>
</g>
<defs>
<clipPath id="clip0_77_23">
<rect width="30" height="30" fill="white"/>
</clipPath>
</defs>
</svg>
