<svg width="28" height="28" viewBox="0 0 28 28" fill="none" xmlns="http://www.w3.org/2000/svg">
<g clip-path="url(#clip0_77_42)">
<mask id="mask0_77_42" style="mask-type:alpha" maskUnits="userSpaceOnUse" x="0" y="0" width="28" height="28">
<circle cx="14" cy="14" r="14" fill="#D9D9D9"/>
</mask>
<g mask="url(#mask0_77_42)">
<path d="M28 22.2536C28 25.4213 25.4213 28 22.2536 28H5.74645C2.56282 28 0 25.4213 0 22.2536V5.74645C0 2.57874 2.57874 0 5.74645 0H22.2536C25.4372 0 28 2.57874 28 5.74645V22.2536Z" fill="url(#paint0_radial_77_42)"/>
<path d="M18.0513 3.43823H9.94899C6.3515 3.43823 3.43848 6.35125 3.43848 9.94875V18.0511C3.43848 21.6486 6.3515 24.5616 9.94899 24.5616H18.0513C21.6488 24.5616 24.5618 21.6486 24.5618 18.0511V9.94875C24.5618 6.35125 21.6488 3.43823 18.0513 3.43823ZM22.5402 17.2711C22.5402 20.1682 20.1844 22.5241 17.2873 22.5241H10.729C7.83188 22.5241 5.476 20.1682 5.476 17.2711V10.7287C5.476 7.83164 7.83188 5.47575 10.729 5.47575H17.2713C20.1684 5.47575 22.5243 7.83164 22.5243 10.7287V17.2711H22.5402Z" fill="white"/>
<path d="M14.2784 8.46826C11.2062 8.46826 8.70703 10.9515 8.70703 14.0237C8.70703 17.0959 11.1903 19.5791 14.2784 19.5791C17.3506 19.5791 19.8338 17.08 19.8338 14.0237C19.8497 10.9674 17.3506 8.46826 14.2784 8.46826ZM14.2784 17.3824C12.4319 17.3824 10.9356 15.8861 10.9356 14.0396C10.9356 12.1931 12.4319 10.6968 14.2784 10.6968C16.1249 10.6968 17.6212 12.1931 17.6212 14.0396C17.6371 15.8861 16.1249 17.3824 14.2784 17.3824Z" fill="white"/>
<path d="M20.8852 8.38888C20.8852 9.16887 20.2485 9.8056 19.4685 9.8056C18.6885 9.8056 18.0518 9.16887 18.0518 8.38888C18.0518 7.60889 18.6885 6.97217 19.4685 6.97217C20.2485 6.97217 20.8852 7.60889 20.8852 8.38888Z" fill="white"/>
</g>
</g>
<defs>
<radialGradient id="paint0_radial_77_42" cx="0" cy="0" r="1" gradientUnits="userSpaceOnUse" gradientTransform="translate(8.20297 30.1728) scale(37.1087)">
<stop offset="0.0969388" stop-color="#FFD879"/>
<stop offset="0.1539" stop-color="#FCCB76"/>
<stop offset="0.2583" stop-color="#F5AA6C"/>
<stop offset="0.3976" stop-color="#E9755E"/>
<stop offset="0.449" stop-color="#E45F58"/>
<stop offset="0.6786" stop-color="#D22A9C"/>
<stop offset="1" stop-color="#6968DF"/>
</radialGradient>
<clipPath id="clip0_77_42">
<rect width="28" height="28" fill="white"/>
</clipPath>
</defs>
</svg>
