<svg width="28" height="28" viewBox="0 0 28 28" fill="none" xmlns="http://www.w3.org/2000/svg">
<g clip-path="url(#clip0_77_5)">
<mask id="mask0_77_5" style="mask-type:alpha" maskUnits="userSpaceOnUse" x="0" y="0" width="28" height="28">
<ellipse cx="14" cy="14" rx="14" ry="14" fill="#D9D9D9"/>
</mask>
<g mask="url(#mask0_77_5)">
<path d="M28 22.2536C28 25.4372 25.4213 28 22.2536 28H5.74645C2.56282 28 0 25.4213 0 22.2536V5.74645C0 2.57874 2.57874 0 5.74645 0H22.2376C25.4213 0 27.9841 2.57874 27.9841 5.74645V22.2536H28Z" fill="#007BB5"/>
<path d="M4.20244 10.6015H8.40483V24.116H4.20244V10.6015ZM6.30364 3.88403C7.64076 3.88403 8.73911 4.98238 8.73911 6.31951C8.73911 7.65663 7.64076 8.75498 6.30364 8.75498C4.9506 8.75498 3.86816 7.67255 3.86816 6.31951C3.86816 4.96647 4.9506 3.88403 6.30364 3.88403Z" fill="white"/>
<path d="M11.0312 10.6014H15.0585V12.4479H15.1222C15.6793 11.3814 17.0483 10.2671 19.1017 10.2671C23.3519 10.2671 24.1478 13.0687 24.1478 16.7139V24.1318H19.9454V17.5576C19.9454 15.9976 19.9136 13.976 17.7646 13.976C15.5838 13.976 15.2496 15.6793 15.2496 17.4462V24.1318H11.0312V10.6014Z" fill="white"/>
</g>
</g>
<defs>
<clipPath id="clip0_77_5">
<rect width="28" height="28" fill="white"/>
</clipPath>
</defs>
</svg>
