<svg width="18" height="16" viewBox="0 0 18 16" fill="none" xmlns="http://www.w3.org/2000/svg">
<path d="M17.592 7.61795L16.3251 8.6442C14.6541 10.0106 12.9831 11.3756 11.312 12.7421C11.1107 12.9058 10.9108 13.0695 10.7109 13.2346C10.4464 13.4538 10.1598 13.589 9.82326 13.431C9.48229 13.2716 9.40587 12.957 9.40587 12.6083C9.40587 11.834 9.38529 11.0597 9.41322 10.2853C9.42645 9.91954 9.32945 9.81705 8.96497 9.81136C5.26726 9.76012 2.2118 12.0503 1.15069 15.697C1.14922 15.7013 1.14775 15.7055 1.14775 15.7098C1.03605 16.097 0.499621 16.097 0.390864 15.7084C0.193927 15.0124 0.0748836 14.295 0.0234448 13.5634C-0.269021 9.43417 2.20004 5.58964 6.01826 4.2474C6.98384 3.90864 7.99057 3.77911 9.01053 3.82324C9.31916 3.83605 9.42498 3.76061 9.41469 3.4247C9.3897 2.58491 9.40734 1.74369 9.40734 0.903905C9.40734 0.556603 9.47495 0.232074 9.8115 0.0712333C10.1392 -0.0853375 10.4346 0.0342257 10.7036 0.254848C12.2423 1.5188 15.8122 4.43671 17.5979 5.89709C18.1358 6.33691 18.1343 7.17812 17.592 7.61795Z" fill="#160E41"/>
</svg>
