<svg width="11" height="15" viewBox="0 0 11 15" fill="none" xmlns="http://www.w3.org/2000/svg">
<path d="M5.43244 0C2.43698 0 0 2.43698 0 5.43241C0 9.14984 4.8615 14.6072 5.06848 14.8377C5.2629 15.0543 5.60233 15.0539 5.79639 14.8377C6.00338 14.6072 10.8649 9.14984 10.8649 5.43241C10.8648 2.43698 8.42787 0 5.43244 0ZM5.43244 13.7616C3.79629 11.8181 0.978282 7.98376 0.978282 5.43247C0.978282 2.97639 2.97639 0.978282 5.43244 0.978282C7.88849 0.978282 9.88659 2.97639 9.88659 5.43244C9.88656 7.98385 7.06899 11.8175 5.43244 13.7616Z" fill="#0D0D0D"/>
<path d="M5.43239 2.69922C3.92529 2.69922 2.69922 3.92532 2.69922 5.43242C2.69922 6.93951 3.92532 8.16561 5.43239 8.16561C6.93945 8.16561 8.16552 6.93951 8.16552 5.43242C8.16552 3.92532 6.93945 2.69922 5.43239 2.69922ZM5.43239 7.18733C4.46471 7.18733 3.6775 6.40009 3.6775 5.43242C3.6775 4.46474 4.46474 3.6775 5.43239 3.6775C6.40003 3.6775 7.18727 4.46474 7.18727 5.43242C7.18727 6.40009 6.40003 7.18733 5.43239 7.18733Z" fill="#0D0D0D"/>
</svg>
