<svg width="16" height="22" viewBox="0 0 16 22" fill="none" xmlns="http://www.w3.org/2000/svg">
<path d="M7.96757 0C3.57423 0 0 3.57423 0 7.96753C0 13.4198 7.1302 21.4239 7.43377 21.762C7.71891 22.0796 8.21675 22.079 8.50138 21.762C8.80495 21.4239 15.9351 13.4198 15.9351 7.96753C15.9351 3.57423 12.3609 0 7.96757 0ZM7.96757 20.1837C5.5679 17.3332 1.43481 11.7095 1.43481 7.96762C1.43481 4.36537 4.36537 1.43481 7.96757 1.43481C11.5698 1.43481 14.5003 4.36537 14.5003 7.96758C14.5003 11.7096 10.3679 17.3323 7.96757 20.1837Z" fill="white"/>
<path d="M7.96763 3.95874C5.75723 3.95874 3.95898 5.75703 3.95898 7.96743C3.95898 10.1778 5.75727 11.9761 7.96763 11.9761C10.178 11.9761 11.9762 10.1778 11.9762 7.96743C11.9762 5.75703 10.178 3.95874 7.96763 3.95874ZM7.96763 10.5413C6.54837 10.5413 5.3938 9.38669 5.3938 7.96743C5.3938 6.54817 6.54841 5.39355 7.96763 5.39355C9.38685 5.39355 10.5415 6.54817 10.5415 7.96743C10.5415 9.38669 9.38685 10.5413 7.96763 10.5413Z" fill="white"/>
</svg>
