<svg width="15" height="15" viewBox="0 0 15 15" fill="none" xmlns="http://www.w3.org/2000/svg">
<path d="M10.4443 0H4.55566C3.62681 0 2.87109 0.755682 2.87109 1.68457V13.3154C2.87109 14.2443 3.62678 15 4.55566 15H10.4443C11.3732 15 12.1289 14.2443 12.1289 13.3154V1.68457C12.1289 0.755682 11.3732 0 10.4443 0ZM4.55566 0.878904H10.4443C10.8886 0.878904 11.25 1.24034 11.25 1.68457V11.5722H3.75V1.68457C3.75 1.24034 4.11143 0.878904 4.55566 0.878904ZM10.4443 14.1211H4.55566C4.1114 14.1211 3.75 13.7597 3.75 13.3154V12.4511H11.25V13.3154C11.25 13.7597 10.8886 14.1211 10.4443 14.1211Z" fill="#0D0D0D"/>
<path d="M7.5 12.8027C7.2573 12.8027 7.06055 12.9995 7.06055 13.2422V13.3008C7.06055 13.5435 7.2573 13.7402 7.5 13.7402C7.7427 13.7402 7.93945 13.5435 7.93945 13.3008V13.2422C7.93945 12.9995 7.74272 12.8027 7.5 12.8027Z" fill="#0D0D0D"/>
</svg>
