<svg width="15" height="15" viewBox="0 0 15 15" fill="#69C8C7" xmlns="http://www.w3.org/2000/svg">
<g clip-path="url(#clip0_42_272)">
<path d="M3.48358 9.60125L2.69171 14.4556C2.66296 14.6325 2.73733 14.8106 2.88421 14.9144C3.03046 15.0175 3.22358 15.0288 3.38108 14.9413L7.49983 12.665L11.6186 14.9419C11.6898 14.9806 11.768 15 11.8455 15C11.9405 15 12.0348 14.9713 12.1155 14.9144C12.2623 14.8106 12.3367 14.6325 12.308 14.4556L11.5161 9.60125L14.8661 6.1675C14.9886 6.04188 15.0311 5.8575 14.9755 5.69125C14.9198 5.52438 14.7755 5.40375 14.6017 5.37688L9.99046 4.6725L7.92358 0.27C7.76921 -0.05875 7.22983 -0.05875 7.07546 0.27L5.00921 4.6725L0.397958 5.37688C0.224208 5.40375 0.079833 5.52438 0.024208 5.69125C-0.031417 5.85813 0.010458 6.04188 0.132958 6.1675L3.48358 9.60125ZM5.39796 5.56125C5.55233 5.5375 5.68483 5.43875 5.75108 5.2975L7.49983 1.57188L9.24858 5.29688C9.31483 5.43813 9.44733 5.5375 9.60171 5.56063L13.5586 6.165L10.6805 9.115C10.5761 9.22125 10.5292 9.37125 10.553 9.51813L11.228 13.6538L7.72671 11.7188C7.65608 11.68 7.57796 11.66 7.49983 11.66C7.42171 11.66 7.34358 11.6794 7.27296 11.7188L3.77171 13.6538L4.44671 9.51813C4.47046 9.37125 4.42358 9.22188 4.31921 9.115L1.44108 6.165L5.39796 5.56125Z" fill="#69C8C7"/>
</g>
<defs>
<clipPath id="clip0_42_272">
<rect width="15" height="15" fill="#69C8C7"/>
</clipPath>
</defs>
</svg>
