<svg width="15" height="15" viewBox="0 0 15 15" fill="none" xmlns="http://www.w3.org/2000/svg">
<g clip-path="url(#clip0_42_269)">
<path d="M13.2811 15H1.71866C0.770523 15 0 14.2294 0 13.2814V4.2189C0 3.27077 0.770523 2.50024 1.71866 2.50024H3.90617C4.16492 2.50024 4.37492 2.71024 4.37492 2.96899C4.37492 3.22774 4.16492 3.43773 3.90617 3.43773H1.71866C1.28802 3.43773 0.937491 3.78826 0.937491 4.2189V13.2814C0.937491 13.7119 1.28802 14.0626 1.71866 14.0626H13.2811C13.7117 14.0626 14.0624 13.7119 14.0624 13.2814V7.96886C14.0624 7.71011 14.2724 7.50012 14.5311 7.50012C14.7899 7.50012 14.9999 7.71011 14.9999 7.96886V13.2814C14.9999 14.2294 14.2292 15 13.2811 15Z" fill="#0D0D0D"/>
<path d="M4.21806 9.99197C4.18373 9.99197 4.14928 9.98819 4.11495 9.97938C3.90312 9.93006 3.75 9.74878 3.75 9.53135V8.59386C3.75 5.2339 6.48374 2.50017 9.84369 2.50017H9.9999V0.468861C9.9999 0.277632 10.1162 0.105743 10.2937 0.033875C10.4705 -0.0373066 10.6736 0.00572274 10.8061 0.143852L14.8686 4.36256C15.0436 4.54383 15.0436 4.83131 14.8686 5.01258L10.8061 9.23129C10.6736 9.36941 10.4692 9.41199 10.2937 9.34126C10.1162 9.26939 9.9999 9.09751 9.9999 8.90628V6.87509H9.25741C7.29122 6.87509 5.52427 7.96753 4.64561 9.72567C4.56493 9.88817 4.39555 9.99197 4.21806 9.99197ZM9.84369 3.43766C7.21867 3.43766 5.045 5.40945 4.72686 7.95002C5.86302 6.6826 7.49241 5.93759 9.25741 5.93759H10.4686C10.7274 5.93759 10.9374 6.14759 10.9374 6.40634V7.7438L13.8804 4.68757L10.9374 1.63134V2.96891C10.9374 3.22766 10.7274 3.43766 10.4686 3.43766H9.84369Z" fill="#0D0D0D"/>
</g>
<defs>
<clipPath id="clip0_42_269">
<rect width="15" height="15" fill="white"/>
</clipPath>
</defs>
</svg>
