<svg width="15" height="15" viewBox="0 0 15 15" fill="none" xmlns="http://www.w3.org/2000/svg">
<path d="M12.7711 2.17827C11.362 0.774422 9.4875 0.000801088 7.49245 0C5.50186 0 3.62434 0.772934 2.20596 2.17644C0.785065 3.58234 0.00183105 5.45071 0 7.43053V7.43282V7.4342C0.000228882 8.63251 0.315056 9.84135 0.912666 10.9448L0.0204849 15L4.12239 14.067C5.16129 14.5905 6.32046 14.8666 7.48959 14.867H7.49256C9.4828 14.867 11.3603 14.094 12.7789 12.6904C14.2011 11.2833 14.9847 9.41734 14.9856 7.43626C14.9862 5.46913 14.1998 3.6018 12.7711 2.17827ZM7.49245 13.6963H7.48981C6.44005 13.6958 5.39989 13.4323 4.48196 12.9339L4.28799 12.8286L1.5604 13.449L2.15286 10.7564L2.03865 10.5595C1.47079 9.58019 1.17073 8.49918 1.17073 7.43294C1.1729 3.98174 4.00852 1.17073 7.49222 1.17073C9.17519 1.17142 10.7565 1.82384 11.9449 3.00762C13.1512 4.20971 13.8153 5.78236 13.8147 7.43591C13.8134 10.8879 10.9772 13.6963 7.49245 13.6963Z" fill="#0D0D0D"/>
<path d="M5.45367 4.15601H5.12522C5.01089 4.15601 4.82527 4.19881 4.66826 4.36967C4.51113 4.54064 4.06836 4.95389 4.06836 5.79434C4.06836 6.6348 4.68256 7.44687 4.76817 7.56097C4.85388 7.67495 5.95377 9.45474 7.69579 10.1394C9.14359 10.7084 9.43827 10.5953 9.75241 10.5668C10.0667 10.5384 10.7665 10.1536 10.9093 9.7548C11.0521 9.35597 11.0521 9.01402 11.0093 8.94261C10.9664 8.87143 10.8521 8.82874 10.6808 8.74337C10.5093 8.65788 9.66933 8.23766 9.5122 8.18055C9.35507 8.12367 9.24086 8.09518 9.12653 8.26627C9.01221 8.43701 8.67564 8.83206 8.57561 8.94605C8.47571 9.06014 8.37569 9.07445 8.20425 8.98896C8.03282 8.90324 7.48648 8.71968 6.83176 8.13786C6.32216 7.68502 5.96854 7.10755 5.86852 6.93658C5.76861 6.76572 5.85787 6.67325 5.94382 6.58799C6.02084 6.51154 6.12486 6.40694 6.21058 6.30727C6.29618 6.20747 6.32056 6.13629 6.37778 6.02231C6.43488 5.90833 6.40627 5.80853 6.36347 5.72316C6.32056 5.63767 5.99165 4.79298 5.83922 4.45515H5.83933C5.71093 4.17065 5.57578 4.16104 5.45367 4.15601Z" fill="#0D0D0D"/>
</svg>
