<svg width="28" height="28" viewBox="0 0 28 28" fill="none" xmlns="http://www.w3.org/2000/svg">
<path d="M2.625 23.1414H8.31095C8.31693 23.1415 8.32185 23.1448 8.32788 23.1448H13.2626C13.7462 23.1448 14.1376 22.7534 14.1376 22.2698C14.1376 21.7862 13.7462 21.3948 13.2626 21.3948H9.20288V11.6113L9.62329 11.1059C10.0898 10.5398 10.5367 10.104 10.9683 9.68227C11.8706 8.80086 12.7225 7.96816 13.4258 6.29079C13.5467 5.77493 13.558 5.03907 13.5693 4.51302C13.5702 4.11312 13.5779 3.84566 13.6642 3.77346C13.7078 3.738 13.7334 3.71236 13.8146 3.79311C14.1726 4.1567 15.1237 5.12228 15.1237 5.95498C15.1237 5.95759 15.1252 5.95973 15.1252 5.96235C15.1241 7.7453 14.8481 8.40427 14.2444 9.84249L13.7804 10.9593C13.6685 11.2293 13.6984 11.5374 13.8607 11.7805C14.0231 12.0236 14.2965 12.1697 14.5887 12.1697H21.0367C21.4871 12.1697 21.7605 12.4231 21.8835 12.5743C22.1014 12.8409 22.186 13.1848 22.1177 13.5185C22.0203 13.9919 22.3253 14.4546 22.7979 14.552C22.8577 14.5644 22.9175 14.57 22.9756 14.57C23.3823 14.57 23.7463 14.2854 23.8318 13.8714C24.007 13.0203 23.7916 12.1445 23.2405 11.4686C22.697 10.8021 21.8938 10.4197 21.0367 10.4197H15.9004C16.5096 8.96664 16.8754 8.04806 16.8754 5.95241C16.8754 5.94691 16.8723 5.94237 16.8722 5.93687C16.8722 5.93436 16.8737 5.93228 16.8737 5.92977C16.8737 4.57796 15.9047 3.42141 15.0604 2.56435C14.358 1.85342 13.2985 1.79659 12.5414 2.43105C11.8236 3.03048 11.821 3.84951 11.8193 4.50747C11.8185 4.67196 11.8185 4.84371 11.8065 5.01888L11.7542 5.74173C11.2003 7.00184 10.5556 7.63892 9.74548 8.43044C9.302 8.86324 8.79956 9.35372 8.27576 9.98946L7.91596 10.4218H2.625C2.14136 10.4218 1.75 10.8136 1.75 11.2968V22.2664C1.75 22.75 2.14136 23.1414 2.625 23.1414ZM3.5 12.1718H7.45288V21.3914H3.5V12.1718Z" fill="#39B54A"/>
<path d="M26.2073 18.41C26.1158 18.1281 25.8877 17.9119 25.6014 17.835L22.4142 16.9813L20.618 14.2141C20.4565 13.9654 20.1805 13.8154 19.884 13.8154C19.5875 13.8154 19.3115 13.9654 19.15 14.2141L17.353 16.9813L14.1658 17.835C13.8795 17.9119 13.6514 18.1281 13.5599 18.41C13.4685 18.692 13.5258 19.0005 13.712 19.2312L15.7893 21.7938L15.615 25.0896C15.5996 25.3853 15.7346 25.6689 15.9747 25.8433C16.2148 26.0176 16.5259 26.0594 16.8027 25.9526L19.884 24.77L22.9645 25.9526C23.0662 25.9919 23.1721 26.0107 23.2781 26.0107C23.4601 26.0107 23.6404 25.9535 23.7925 25.8433C24.0326 25.6689 24.1676 25.3853 24.1522 25.0896L23.9779 21.7938L26.0552 19.2312C26.2415 19.0005 26.2987 18.692 26.2073 18.41ZM22.4065 20.953C22.2706 21.1213 22.2014 21.3341 22.2125 21.5503L22.333 23.8361L20.1976 23.0157C19.996 22.9388 19.7721 22.9388 19.5704 23.0157L17.4342 23.8361L17.5547 21.5503C17.5658 21.3341 17.4966 21.1213 17.3607 20.953L15.9209 19.1765L18.1306 18.5844C18.3391 18.5288 18.5203 18.3972 18.6382 18.2161L19.884 16.2969L21.129 18.2161C21.247 18.3972 21.4281 18.5288 21.6366 18.5844L23.8463 19.1765L22.4065 20.953Z" fill="#39B54A"/>
</svg>
