<svg width="28" height="28" viewBox="0 0 28 28" fill="none" xmlns="http://www.w3.org/2000/svg">
<g clip-path="url(#clip0_16_111)">
<path d="M14 12.9022C14.5568 12.9022 15.0803 12.6853 15.4741 12.2916C15.7943 11.9712 15.7943 11.4519 15.4741 11.1316C15.1537 10.8112 14.6343 10.8113 14.314 11.1316C14.2301 11.2154 14.1186 11.2616 14 11.2616C13.8814 11.2616 13.7699 11.2154 13.686 11.1316C13.3657 10.8112 12.8463 10.8112 12.526 11.1316C12.2057 11.4518 12.2057 11.9712 12.526 12.2916C12.9196 12.6853 13.4432 12.9022 14 12.9022Z" fill="#39B54A"/>
<path d="M14 3.61651C14.453 3.61651 14.8202 3.24925 14.8202 2.79624V0.821032C14.8202 0.368025 14.453 0.000762939 14 0.000762939C13.547 0.000762939 13.1797 0.368025 13.1797 0.821032V2.79624C13.1797 3.2493 13.547 3.61651 14 3.61651Z" fill="#39B54A"/>
<path d="M9.46952 4.69582C9.62974 4.85604 9.83962 4.9361 10.0496 4.9361C10.2594 4.9361 10.4694 4.85599 10.6295 4.69582C10.9499 4.37553 10.9499 3.85613 10.6295 3.53579L9.23284 2.13909C8.9125 1.81875 8.39316 1.81875 8.07282 2.13909C7.75247 2.45938 7.75247 2.97877 8.07282 3.29912L9.46952 4.69582Z" fill="#39B54A"/>
<path d="M17.9504 4.93606C18.1604 4.93606 18.3703 4.85595 18.5305 4.69577L19.9271 3.29907C20.2475 2.97879 20.2475 2.45939 19.9271 2.13905C19.6068 1.81876 19.0874 1.81876 18.7671 2.13905L17.3704 3.53575C17.0501 3.85604 17.0501 4.37543 17.3704 4.69577C17.5306 4.85595 17.7405 4.93606 17.9504 4.93606Z" fill="#39B54A"/>
<path d="M27.7825 11.8796C27.4695 11.1736 26.8606 10.6591 26.1122 10.468L26.038 10.449C24.9163 10.1625 23.7469 10.6828 23.194 11.7149C22.8729 12.3148 22.4065 12.8904 21.8075 13.4257C20.7349 14.3844 19.4309 15.043 18.0212 15.3552C18.8217 14.4258 19.3064 13.2168 19.3064 11.8967C19.3064 8.97069 16.9259 6.59027 14 6.59027C11.074 6.59027 8.69354 8.97069 8.69354 11.8967C8.69354 13.2168 9.17821 14.4257 9.97874 15.3552C8.56902 15.043 7.26507 14.3844 6.19243 13.4257C5.59347 12.8904 5.12701 12.3148 4.80585 11.7145C4.2531 10.6829 3.08356 10.1624 1.96203 10.449L1.88799 10.4679C1.13935 10.659 0.530495 11.1736 0.217535 11.8796C-0.0975581 12.5904 -0.0692314 13.3934 0.295296 14.0828C1.28241 15.9493 2.87368 17.5572 5.02491 18.862C6.57856 19.8043 7.94141 20.2877 8.40546 20.4379V27.1789C8.40546 27.6319 8.77272 27.9992 9.22573 27.9992H18.7742C19.2272 27.9992 19.5945 27.6319 19.5945 27.1789V20.4379C20.0585 20.2878 21.4214 19.8043 22.975 18.862C25.1263 17.5573 26.7175 15.9493 27.7047 14.0828C28.0692 13.3935 28.0976 12.5904 27.7825 11.8796ZM14 8.23081C16.0213 8.23081 17.6659 9.87529 17.6659 11.8967C17.6659 13.9181 16.0213 15.5626 14 15.5626C11.9786 15.5626 10.3341 13.9181 10.3341 11.8967C10.3341 9.87529 11.9786 8.23081 14 8.23081ZM1.74553 13.3159C1.61757 13.0739 1.60729 12.7928 1.71731 12.5445C1.78075 12.4014 1.93994 12.1479 2.29385 12.0575L2.36806 12.0386C2.7566 11.9394 3.16432 12.1247 3.35955 12.489C3.77143 13.2586 4.35672 13.9853 5.09918 14.649C5.56585 15.0661 6.0689 15.4355 6.60082 15.755C6.29403 16.4361 5.95171 16.944 5.64001 17.3146C4.23046 16.424 2.70076 15.1222 1.74553 13.3159ZM19.052 18.8891L18.5484 19.0334C18.1965 19.1342 17.954 19.4559 17.954 19.8219V26.3587H10.0461V19.8219C10.0461 19.4559 9.80353 19.1341 9.45163 19.0333L8.9481 18.8891C8.74429 18.8244 8.02491 18.5831 7.09221 18.1252C7.42141 17.697 7.76352 17.1555 8.07232 16.4815C9.26549 16.9541 10.5551 17.2029 11.8782 17.2029H13.9831C13.9888 17.2029 13.9943 17.2031 14 17.2031C14.0056 17.2031 14.0112 17.2029 14.0168 17.2029H16.1218C17.4448 17.2029 18.7345 16.9541 19.9276 16.4815C20.2364 17.1554 20.5785 17.697 20.9078 18.1252C19.9751 18.5832 19.2557 18.8244 19.052 18.8891ZM26.2545 13.3159C25.2992 15.1222 23.7695 16.424 22.3599 17.3146C22.0482 16.944 21.7059 16.4361 21.3991 15.7549C21.931 15.4355 22.4341 15.066 22.9008 14.6489C23.6432 13.9853 24.2285 13.2586 24.6402 12.4893C24.8356 12.1246 25.2435 11.9394 25.6319 12.0385L25.7063 12.0575C26.06 12.1478 26.2192 12.4013 26.2827 12.5444C26.3927 12.7927 26.3824 13.0739 26.2545 13.3159Z" fill="#39B54A"/>
</g>
<defs>
<clipPath id="clip0_16_111">
<rect width="28" height="28" fill="white"/>
</clipPath>
</defs>
</svg>
