<svg width="32" height="32" viewBox="0 0 32 32" fill="none" xmlns="http://www.w3.org/2000/svg">
<path fill-rule="evenodd" clip-rule="evenodd" d="M13.0348 5.80336C12.5513 5.55135 11.9551 5.74507 11.712 6.23316L11.0226 7.61772C10.5895 8.48739 9.75905 9.09076 8.79813 9.23388L7.26827 9.46176C6.72897 9.54209 6.36049 10.0493 6.45074 10.587L6.70677 12.1124C6.86759 13.0705 6.55038 14.0467 5.8571 14.7274L4.75337 15.811C4.36427 16.193 4.36427 16.8198 4.75337 17.2018L5.8571 18.2854C6.55038 18.9661 6.86759 19.9423 6.70677 20.9005L6.45074 22.4258C6.36049 22.9635 6.72897 23.4707 7.26827 23.551L8.79813 23.779C9.75905 23.9221 10.5895 24.5254 11.0226 25.3951L11.712 26.7797C11.9551 27.2678 12.5513 27.4615 13.0348 27.2094L14.4065 26.4946C15.268 26.0455 16.2945 26.0455 17.156 26.4946L18.5276 27.2094C19.0112 27.4615 19.6075 27.2678 19.8504 26.7797L20.5399 25.3951C20.9729 24.5254 21.8035 23.9221 22.7644 23.779L24.2943 23.551C24.8336 23.4707 25.202 22.9635 25.1117 22.4258L24.8557 20.9005C24.6949 19.9423 25.0121 18.9661 25.7055 18.2854L26.8092 17.2018C27.1983 16.8198 27.1983 16.193 26.8092 15.811L25.7055 14.7274C25.0121 14.0467 24.6949 13.0705 24.8557 12.1124L25.1117 10.587C25.202 10.0493 24.8336 9.54208 24.2943 9.46176L22.7644 9.23388C21.8035 9.09076 20.9729 8.48739 20.5399 7.61772L19.8504 6.23316C19.6075 5.74507 19.0112 5.55135 18.5276 5.80336L17.156 6.51823C16.2945 6.96725 15.268 6.96725 14.4065 6.51823L13.0348 5.80336ZM9.92174 5.34164C10.6636 3.85188 12.4834 3.2606 13.9592 4.02979L15.3308 4.74467C15.6131 4.89177 15.9495 4.89177 16.2317 4.74467L17.6033 4.02979C19.0791 3.2606 20.8989 3.85188 21.6408 5.34164L22.3303 6.7262C22.4721 7.01113 22.7443 7.20881 23.0591 7.25571L24.5889 7.48357C26.2349 7.72876 27.3596 9.27676 27.0841 10.9181L26.8281 12.4435C26.7755 12.7574 26.8793 13.0772 27.1065 13.3002L28.2103 14.3838C29.3979 15.5497 29.3979 17.4631 28.2103 18.629L27.1065 19.7126C26.8793 19.9357 26.7755 20.2554 26.8281 20.5694L27.0841 22.0947C27.3596 23.7361 26.2349 25.2841 24.5889 25.5293L23.0591 25.7571C22.7443 25.8041 22.4721 26.0017 22.3303 26.2866L21.6408 27.6711C20.8989 29.161 19.0791 29.7522 17.6033 28.983L16.2317 28.2682C15.9495 28.121 15.6131 28.121 15.3308 28.2682L13.9592 28.983C12.4834 29.7522 10.6636 29.161 9.92174 27.6711L9.23227 26.2866C9.09039 26.0017 8.8183 25.8041 8.50347 25.7571L6.97362 25.5293C5.32753 25.2841 4.20285 23.7361 4.47833 22.0947L4.73437 20.5694C4.78705 20.2554 4.68313 19.9357 4.45598 19.7126L3.35225 18.629C2.16465 17.4631 2.16465 15.5497 3.35225 14.3838L4.45598 13.3002C4.68313 13.0772 4.78705 12.7574 4.73437 12.4435L4.47833 10.9181C4.20285 9.27676 5.32753 7.72876 6.97362 7.48357L8.50347 7.25571C8.8183 7.20881 9.09039 7.01113 9.23227 6.7262L9.92174 5.34164Z" fill="#39B54A"/>
<path fill-rule="evenodd" clip-rule="evenodd" d="M21.4506 12.6006C21.8412 12.9912 21.8412 13.6243 21.4506 14.0149L15.4506 20.0149C15.0601 20.4054 14.427 20.4054 14.0365 20.0149L11.3698 17.3482C10.9793 16.9577 10.9793 16.3245 11.3698 15.9339C11.7603 15.5434 12.3935 15.5434 12.784 15.9339L14.7436 17.8935L20.0365 12.6006C20.427 12.2101 21.0601 12.2101 21.4506 12.6006Z" fill="#39B54A"/>
</svg>
