<svg width="28" height="28" viewBox="0 0 28 28" fill="none" xmlns="http://www.w3.org/2000/svg">
<path d="M13.2038 24.8762C6.76769 24.8762 1.53125 19.6402 1.53125 13.2037C1.53125 6.76725 6.76769 1.53125 13.2038 1.53125C19.4622 1.53125 24.584 6.42469 24.864 12.6713C24.8806 13.0336 24.5998 13.3402 24.2379 13.3564C23.8652 13.3722 23.5694 13.0922 23.5533 12.7304C23.3043 7.18681 18.7583 2.84375 13.2038 2.84375C7.49131 2.84375 2.84375 7.49131 2.84375 13.2037C2.84375 18.9162 7.49131 23.5637 13.2038 23.5637C14.6436 23.5637 16.0344 23.2732 17.3368 22.7006C17.6698 22.5549 18.0561 22.7062 18.2018 23.037C18.3479 23.3691 18.1969 23.7562 17.8649 23.9019C16.3949 24.5486 14.8264 24.8762 13.2038 24.8762Z" fill="#39B54A"/>
<path d="M13.2037 13.8596H7.74023C7.37798 13.8596 7.08398 13.566 7.08398 13.2033C7.08398 12.8406 7.37798 12.5471 7.74023 12.5471H12.932L15.0548 10.4243C15.3112 10.1679 15.7264 10.1679 15.9827 10.4243C16.2391 10.6802 16.2391 11.0963 15.9827 11.3522L13.6679 13.6671C13.545 13.79 13.3779 13.8591 13.2037 13.8591V13.8596Z" fill="#39B54A"/>
<path d="M13.2037 5.46874C12.8415 5.46874 12.5475 5.17518 12.5475 4.81249V4.38068C12.5475 4.01799 12.8415 3.72443 13.2037 3.72443C13.566 3.72443 13.86 4.01799 13.86 4.38068V4.81249C13.86 5.17518 13.566 5.46874 13.2037 5.46874Z" fill="#39B54A"/>
<path d="M7.26995 7.92662C7.10195 7.92662 6.93395 7.86274 6.80576 7.73455L6.50039 7.42918C6.24401 7.17324 6.24401 6.75718 6.50039 6.50124C6.75676 6.24487 7.17195 6.24487 7.42832 6.50124L7.7337 6.80662C7.99007 7.06255 7.99007 7.47862 7.7337 7.73455C7.60551 7.86274 7.43751 7.92662 7.26951 7.92662H7.26995Z" fill="#39B54A"/>
<path d="M4.81249 13.8596H4.38068C4.01843 13.8596 3.72443 13.566 3.72443 13.2033C3.72443 12.8406 4.01843 12.5471 4.38068 12.5471H4.81249C5.17474 12.5471 5.46874 12.8406 5.46874 13.2033C5.46874 13.566 5.17474 13.8596 4.81249 13.8596Z" fill="#39B54A"/>
<path d="M6.96457 20.0983C6.79657 20.0983 6.62857 20.0344 6.50039 19.9062C6.24401 19.6503 6.24401 19.2342 6.50039 18.9783L6.80576 18.6729C7.06214 18.4166 7.47732 18.4166 7.7337 18.6729C7.99007 18.9289 7.99007 19.3449 7.7337 19.6009L7.42832 19.9062C7.30014 20.0344 7.13257 20.0983 6.96457 20.0983Z" fill="#39B54A"/>
<path d="M13.2037 22.6826C12.8415 22.6826 12.5475 22.3891 12.5475 22.0264V21.5946C12.5475 21.2319 12.8415 20.9383 13.2037 20.9383C13.566 20.9383 13.86 21.2319 13.86 21.5946V22.0264C13.86 22.3891 13.566 22.6826 13.2037 22.6826Z" fill="#39B54A"/>
<path d="M22.0264 13.8596H21.5946C21.2323 13.8596 20.9383 13.566 20.9383 13.2033C20.9383 12.8406 21.2323 12.5471 21.5946 12.5471H22.0264C22.3886 12.5471 22.6826 12.8406 22.6826 13.2033C22.6826 13.566 22.3886 13.8596 22.0264 13.8596Z" fill="#39B54A"/>
<path d="M19.1367 7.92662C18.9687 7.92662 18.8007 7.86274 18.6725 7.73455C18.4161 7.47862 18.4161 7.06255 18.6725 6.80662L18.9779 6.50124C19.2343 6.24487 19.6494 6.24487 19.9058 6.50124C20.1622 6.75718 20.1622 7.17324 19.9058 7.42918L19.6004 7.73455C19.4723 7.86274 19.3047 7.92662 19.1367 7.92662Z" fill="#39B54A"/>
<path d="M19.9063 26.4591C19.723 26.4591 19.548 26.3826 19.4233 26.2474L14.4366 20.8324C13.2121 19.5016 12.9933 17.5328 13.9046 16.044C14.3295 15.3571 14.9157 14.8724 15.6485 14.6016C17.5884 13.8832 19.1345 15.0115 19.9058 15.7784C20.6785 15.0111 22.2259 13.8841 24.164 14.6016C24.8964 14.8724 25.4826 15.3567 25.9057 16.0414C26.8183 17.5324 26.5996 19.5011 25.375 20.832C24.1505 22.1629 20.3884 26.2469 20.3884 26.2469C20.2641 26.3821 20.0887 26.4587 19.9054 26.4587L19.9063 26.4591ZM16.8779 15.6914C16.6311 15.6914 16.3717 15.7338 16.104 15.8331C15.645 16.0024 15.292 16.2964 15.0225 16.7322C14.417 17.7209 14.5727 19.0426 15.4018 19.9439L19.9058 24.8343L24.4099 19.9434C25.2394 19.0418 25.3947 17.7205 24.7879 16.7296C24.5201 16.2964 24.1666 16.0024 23.7086 15.8331C21.9056 15.1651 20.4978 17.0734 20.4383 17.1548C20.3153 17.3259 20.1228 17.4436 19.9041 17.4274C19.6928 17.4269 19.4937 17.3254 19.3712 17.1535C19.3222 17.0853 18.2945 15.6914 16.877 15.6914H16.8779Z" fill="#39B54A"/>
</svg>
