<svg width="26" height="28" viewBox="0 0 26 28" fill="none" xmlns="http://www.w3.org/2000/svg">
<g clip-path="url(#clip0_5_38)">
<path d="M22.6943 4.39236H18.8771L19.1439 2.19618H22.6943C23.4154 2.19618 23.9999 1.70457 23.9999 1.09809C23.9999 0.491615 23.4154 0 22.6943 0H17.9648C17.2951 0 16.734 0.426169 16.666 0.986524L16.2523 4.39236H3.30574C2.53202 4.39236 1.92829 4.95557 2.00689 5.60213L4.62248 27.1247C4.69057 27.685 5.25167 28.1111 5.92133 28.1111H20.0787C20.7484 28.1111 21.3094 27.685 21.3775 27.1247L23.9931 5.60213C24.0718 4.95464 23.4669 4.39236 22.6943 4.39236ZM4.75161 6.58854H15.9856L15.7189 8.78472H5.01848L4.75161 6.58854ZM18.8997 25.9149H7.10033L5.28542 10.9809H20.7146L18.8997 25.9149ZM20.9815 8.78472H18.3437L18.6105 6.58854H21.2484L20.9815 8.78472ZM12.9999 19.2244L14.8464 20.7773L12.9999 22.3302L11.1535 20.7773L12.9999 19.2244ZM15.7697 14.5656L17.6161 16.1185L15.7697 17.6715L13.9232 16.1185L15.7697 14.5656ZM12.0768 16.1185L10.2303 17.6715L8.3839 16.1185L10.2303 14.5656L12.0768 16.1185Z" fill="#39B54A"/>
</g>
<defs>
<clipPath id="clip0_5_38">
<rect width="26" height="28" fill="white"/>
</clipPath>
</defs>
</svg>
