<svg width="28" height="28" viewBox="0 0 28 28" fill="none" xmlns="http://www.w3.org/2000/svg">
<g clip-path="url(#clip0_12_94)">
<path d="M19.6888 5.35487C17.5696 3.63201 14.7919 2.96978 12.0671 3.53758C8.52657 4.27565 5.7277 7.19693 5.11417 10.7627C4.57585 13.8901 5.65293 16.8601 7.76052 18.878C9.11916 20.1787 9.89846 21.9888 9.89846 23.8439V25.5392C9.89846 26.8961 11.0025 28.0001 12.3594 28.0001H15.6406C16.9975 28.0001 18.1015 26.8961 18.1015 25.5392C18.1015 24.0402 18.1015 26.942 18.1015 23.3555C18.1015 21.7664 18.8411 20.1948 20.1841 18.9303C21.9884 17.2316 23.0232 14.8367 23.0232 12.3595C23.0234 9.63094 21.8079 7.07794 19.6888 5.35487ZM15.6406 26.3593H12.3594C11.9071 26.3593 11.5391 25.9912 11.5391 25.539V24.664H16.4609V25.539C16.4609 25.9912 16.0929 26.3593 15.6406 26.3593ZM14 17.4431L11.7743 14.1046L12.3594 13.5195L13.42 14.5801C13.7402 14.9004 14.2598 14.9004 14.58 14.5801L15.6406 13.5195L16.2257 14.1046L14 17.4431ZM19.0596 17.7358C17.4746 19.2281 16.5633 21.0943 16.469 23.0233H14.8203V19.1702L17.9187 14.5227L19.5018 12.9395C19.8223 12.6191 19.8223 12.0998 19.5018 11.7793C19.1814 11.4591 18.6621 11.4591 18.3417 11.7793L17.2812 12.84L16.2206 11.7793C15.9002 11.4591 15.3809 11.4591 15.0604 11.7793L13.9998 12.84L12.9394 11.7793C12.6189 11.4591 12.0996 11.4591 11.7792 11.7793L10.7186 12.84L9.65792 11.7793C9.3377 11.4591 8.81838 11.4591 8.49795 11.7793C8.17752 12.0998 8.17752 12.6191 8.49795 12.9395L10.0811 14.5227L13.1795 19.1702V23.0233H11.4981C11.2985 21.0172 10.3746 19.1096 8.89507 17.6928C7.08954 15.9644 6.30084 13.5398 6.73087 11.0408C7.23416 8.11572 9.51308 5.7458 12.4017 5.1436C14.6407 4.67683 16.9194 5.21794 18.6535 6.62784C20.3879 8.03796 21.3826 10.127 21.3826 12.3593C21.3828 14.4161 20.5578 16.3254 19.0596 17.7358Z" fill="#39B54A"/>
<path d="M3.2813 12.3593C3.2813 11.9064 2.91408 11.539 2.46099 11.539H0.820368C0.367489 11.539 5.91278e-05 11.9064 5.91278e-05 12.3593C5.91278e-05 12.8124 0.367489 13.1796 0.820368 13.1796H2.46099C2.91408 13.1796 3.2813 12.8124 3.2813 12.3593Z" fill="#39B54A"/>
<path d="M27.1796 11.539H25.539C25.0859 11.539 24.7187 11.9064 24.7187 12.3593C24.7187 12.8124 25.0859 13.1796 25.539 13.1796H27.1796C27.6325 13.1796 27.9999 12.8124 27.9999 12.3593C27.9999 11.9064 27.6325 11.539 27.1796 11.539Z" fill="#39B54A"/>
<path d="M4.46433 5.90684L3.04353 5.08653C2.65132 4.85987 2.14953 4.99446 1.92309 5.38688C1.69665 5.77909 1.83101 6.28089 2.22322 6.50733L3.64403 7.32764C4.03624 7.55408 4.53825 7.41992 4.76469 7.0275C4.99113 6.63507 4.85676 6.13349 4.46433 5.90684Z" fill="#39B54A"/>
<path d="M25.7766 18.2115L24.3558 17.3912C23.9633 17.1645 23.4618 17.2991 23.2353 17.6913C23.0087 18.0837 23.143 18.5853 23.5355 18.812L24.9563 19.6323C25.3482 19.8587 25.85 19.7246 26.0767 19.3319C26.3034 18.9397 26.169 18.4379 25.7766 18.2115Z" fill="#39B54A"/>
<path d="M7.54733 2.65145C7.77398 3.04388 8.27578 3.17803 8.66799 2.95159C9.0602 2.72515 9.19478 2.22336 8.96813 1.83115L8.14782 0.410345C7.92138 0.0179212 7.41958 -0.116447 7.02737 0.109992C6.63495 0.336645 6.50058 0.83823 6.72702 1.23065L7.54733 2.65145Z" fill="#39B54A"/>
<path d="M3.64403 17.3912L2.22322 18.2115C1.83101 18.4379 1.69665 18.9397 1.92309 19.3319C2.14974 19.7246 2.65154 19.8587 3.04353 19.6323L4.46433 18.812C4.85676 18.5853 4.99113 18.0837 4.76469 17.6913C4.53825 17.2991 4.03645 17.1645 3.64403 17.3912Z" fill="#39B54A"/>
<path d="M24.3558 7.32766L25.7766 6.50736C26.169 6.28092 26.3034 5.77912 26.0767 5.38691C25.8503 4.99448 25.3487 4.86012 24.9563 5.08655L23.5355 5.90686C23.143 6.13352 23.0087 6.6351 23.2353 7.02753C23.4618 7.41974 23.9633 7.55432 24.3558 7.32766Z" fill="#39B54A"/>
<path d="M19.332 2.95159C19.724 3.17803 20.2258 3.04409 20.4525 2.65145L21.2728 1.23065C21.4994 0.83823 21.3648 0.336645 20.9726 0.109992C20.5802 -0.116447 20.0784 0.0179212 19.852 0.410345L19.0317 1.83115C18.8052 2.22336 18.9396 2.72515 19.332 2.95159Z" fill="#39B54A"/>
</g>
<defs>
<clipPath id="clip0_12_94">
<rect width="28" height="28" fill="white"/>
</clipPath>
</defs>
</svg>
