<svg width="50" height="50" viewBox="0 0 50 50" fill="none" xmlns="http://www.w3.org/2000/svg">
<path d="M17.3398 14.0066L19.1073 15.7741C22.3628 12.5196 27.6383 12.5196 30.8923 15.7741L32.6613 14.0066C28.4293 9.77563 21.5718 9.77463 17.3398 14.0066Z" fill="#39B54A"/>
<path d="M41.6665 21.6665C41.6665 12.46 34.2075 5 25 5C15.795 5 8.3335 12.46 8.3335 21.6665C6.4925 21.6665 5 23.159 5 25V35C5 36.841 6.4925 38.3335 8.3335 38.3335H13.3335C14.254 38.3335 15 37.588 15 36.6665V28.3335C15 27.417 14.584 26.0415 14.0755 25.28L11.667 21.667C11.667 14.302 17.636 8.3335 25.0005 8.3335C32.367 8.3335 38.334 14.302 38.334 21.667L35.925 25.28C35.4165 26.0415 35 27.417 35 28.3335V37.1325C32.557 39.9075 28.988 41.6665 25 41.6665H21.6665V45H25C30.449 45 35.27 42.3745 38.3105 38.3335H41.6665C43.5075 38.3335 45 36.841 45 35V25C45 23.159 43.5075 21.6665 41.6665 21.6665ZM11.6665 35H8.333V25H9.8825L11.3015 27.129C11.4515 27.365 11.6595 28.0555 11.666 28.3365L11.6665 35ZM41.6665 35H38.3335V28.3365C38.34 28.055 38.5485 27.365 38.698 27.129L40.117 25H41.6665V35Z" fill="#39B54A"/>
</svg>
