<svg width="40" height="49" viewBox="0 0 40 49" fill="none" xmlns="http://www.w3.org/2000/svg">
<path d="M36.9792 7.29167C37.6042 7.8125 38.6458 7.8125 39.1667 7.1875C39.6875 6.5625 39.6875 5.52083 39.0625 5L33.75 0.416667C33.4375 0.104167 33.0208 0 32.6042 0C32.1875 0 31.7708 0.208333 31.5625 0.625L23.9583 10.4167H1.5625C1.14583 10.4167 0.729167 10.625 0.416667 10.9375C0.104167 11.1458 0 11.5625 0 11.9792L3.4375 47.3958C3.54167 48.2292 4.16667 48.8542 5 48.8542H24.6875C25.5208 48.8542 26.1458 48.2292 26.25 47.3958L29.6875 11.9792C29.6875 11.5625 29.5833 11.1458 29.2708 10.7292C28.9583 10.4167 28.5417 10.2083 28.125 10.2083H27.8125L32.9167 3.64583L36.9792 7.29167ZM21.4583 13.4375L17.5 18.5417H3.75L3.22917 13.4375H21.4583ZM23.2292 45.7292H6.45833L4.0625 21.6667H25.5208L23.2292 45.7292ZM26.3542 13.4375L25.8333 18.5417H21.3542L25.3125 13.4375H26.3542Z" fill="white"/>
</svg>
