<svg width="50" height="50" viewBox="0 0 50 50" fill="none" xmlns="http://www.w3.org/2000/svg">
<path d="M34.3755 10.4687V7.8125C34.3755 6.5693 33.8816 5.37701 33.0025 4.49794C32.1234 3.61886 30.9312 3.125 29.688 3.125H26.563C25.3198 3.125 24.1275 3.61886 23.2484 4.49794C22.3693 5.37701 21.8755 6.5693 21.8755 7.8125V10.4687C17.9896 11.8355 14.662 14.4437 12.4067 17.8906C12.2939 18.063 12.2161 18.2559 12.1777 18.4583C12.1394 18.6607 12.1414 18.8687 12.1835 19.0704C12.2684 19.4777 12.5117 19.8346 12.8598 20.0625C13.2079 20.2904 13.6323 20.3707 14.0396 20.2857C14.4469 20.2008 14.8038 19.9575 15.0317 19.6094C16.6636 17.1003 18.9819 15.1127 21.7108 13.883C24.4396 12.6534 27.4643 12.2334 30.4249 12.673C33.3856 13.1126 36.1577 14.3933 38.4115 16.3629C40.6653 18.3324 42.306 20.9078 43.1385 23.7829C43.971 26.6579 43.9601 29.7115 43.1073 32.5806C42.2544 35.4496 40.5955 38.0134 38.3278 39.9669C36.06 41.9203 33.2789 43.1814 30.3152 43.6C27.3515 44.0186 24.3299 43.5771 21.6098 42.3281C21.2327 42.1561 20.8028 42.141 20.4145 42.2861C20.0262 42.4311 19.7115 42.7245 19.5395 43.1016C19.3675 43.4787 19.3524 43.9086 19.4975 44.2969C19.6425 44.6852 19.9359 44.9999 20.313 45.1719C22.6191 46.2565 25.1222 46.8595 27.6692 46.9443C30.2163 47.029 32.7539 46.5936 35.127 45.6647C37.5002 44.7358 39.659 43.3329 41.4718 41.5416C43.2845 39.7503 44.713 37.6083 45.6701 35.2464C46.6272 32.8845 47.0928 30.3522 47.0384 27.8044C46.984 25.2565 46.4108 22.7464 45.3537 20.4275C44.2967 18.1086 42.778 16.0295 40.8904 14.3173C39.0029 12.605 36.7861 11.2955 34.3755 10.4687ZM25.0005 9.67187V7.8125C25.0005 7.3981 25.1651 7.00067 25.4581 6.70765C25.7511 6.41462 26.1486 6.25 26.563 6.25H29.688C30.1024 6.25 30.4998 6.41462 30.7928 6.70765C31.0858 7.00067 31.2505 7.3981 31.2505 7.8125V9.65625C30.2185 9.47535 29.1732 9.38128 28.1255 9.375C27.0774 9.38716 26.0321 9.48646 25.0005 9.67187Z" fill="#39B54A"/>
<path d="M37.1563 20.9062C36.8984 20.5842 36.5238 20.3773 36.114 20.3304C35.7042 20.2836 35.2925 20.4007 34.9688 20.6562L30.5781 24.1562C29.8467 23.6853 28.9949 23.4357 28.125 23.4374C27.1979 23.4374 26.2916 23.7123 25.5208 24.2274C24.7499 24.7425 24.1491 25.4746 23.7943 26.3311C23.4395 27.1876 23.3467 28.1301 23.5276 29.0394C23.7084 29.9487 24.1549 30.7839 24.8104 31.4395C25.466 32.095 26.3012 32.5415 27.2105 32.7223C28.1198 32.9032 29.0623 32.8104 29.9188 32.4556C30.7754 32.1008 31.5074 31.5 32.0225 30.7291C32.5376 29.9583 32.8125 29.052 32.8125 28.1249C32.8105 27.5917 32.7153 27.0629 32.5313 26.5624L36.9063 23.0624C37.2192 22.8055 37.4202 22.437 37.4668 22.0348C37.5134 21.6326 37.4021 21.2279 37.1563 20.9062ZM28.125 29.6874C27.816 29.6874 27.5139 29.5958 27.2569 29.4241C27 29.2524 26.7997 29.0084 26.6814 28.7229C26.5632 28.4373 26.5322 28.1232 26.5925 27.8201C26.6528 27.517 26.8016 27.2386 27.0201 27.0201C27.2387 26.8015 27.5171 26.6527 27.8202 26.5924C28.1233 26.5321 28.4374 26.5631 28.7229 26.6814C29.0085 26.7996 29.2525 26.9999 29.4242 27.2568C29.5959 27.5138 29.6875 27.8159 29.6875 28.1249C29.6875 28.5393 29.5229 28.9367 29.2299 29.2298C28.9368 29.5228 28.5394 29.6874 28.125 29.6874Z" fill="#39B54A"/>
<path d="M17.1875 23.4375H7.8125C7.3981 23.4375 7.00067 23.6021 6.70765 23.8951C6.41462 24.1882 6.25 24.5856 6.25 25C6.25 25.4144 6.41462 25.8118 6.70765 26.1049C7.00067 26.3979 7.3981 26.5625 7.8125 26.5625H17.1875C17.6019 26.5625 17.9993 26.3979 18.2924 26.1049C18.5854 25.8118 18.75 25.4144 18.75 25C18.75 24.5856 18.5854 24.1882 18.2924 23.8951C17.9993 23.6021 17.6019 23.4375 17.1875 23.4375Z" fill="#39B54A"/>
<path d="M17.1875 29.6875H4.6875C4.2731 29.6875 3.87567 29.8521 3.58265 30.1451C3.28962 30.4382 3.125 30.8356 3.125 31.25C3.125 31.6644 3.28962 32.0618 3.58265 32.3549C3.87567 32.6479 4.2731 32.8125 4.6875 32.8125H17.1875C17.6019 32.8125 17.9993 32.6479 18.2924 32.3549C18.5854 32.0618 18.75 31.6644 18.75 31.25C18.75 30.8356 18.5854 30.4382 18.2924 30.1451C17.9993 29.8521 17.6019 29.6875 17.1875 29.6875Z" fill="#39B54A"/>
<path d="M17.1875 35.9375H7.8125C7.3981 35.9375 7.00067 36.1021 6.70765 36.3951C6.41462 36.6882 6.25 37.0856 6.25 37.5C6.25 37.9144 6.41462 38.3118 6.70765 38.6049C7.00067 38.8979 7.3981 39.0625 7.8125 39.0625H17.1875C17.6019 39.0625 17.9993 38.8979 18.2924 38.6049C18.5854 38.3118 18.75 37.9144 18.75 37.5C18.75 37.0856 18.5854 36.6882 18.2924 36.3951C17.9993 36.1021 17.6019 35.9375 17.1875 35.9375Z" fill="#39B54A"/>
</svg>
